P1
8 8
00000000
00000000
00100000
00010000
01110000
00000000
00000000
00000000
