P1
128 128
00000000011011000000000001101100000000000000000000000000000000000000000001101100000000000110110000000000000000000000000000000000
00000000101010100000000010101010000000000000000000000000000000000000000010101010000000001010101000000000000000000000000000000000
00000000110001100000000011000110000000000000000000000000000000000000000011000110000000001100011000000000000000000000000000000000
00000000000000000000000000000000000000000000000000000000000000000000000000000000000000000000000000000000000000000000000000000000
00000000110001100000000011000110000000000000000000000000000000000000000011000110000000001100011000000000000000000000000000000000
00000000101010100000000010101010000000000000000000000000000000000000000010101010000000001010101000000000000000000000000000000000
00000000011011000000000001101100000000000000000000000000000000000000000001101100000000000110110000000000000000000000000000000000
00000000000000000000000000000000000000000000000000000000000000000000000000000000000000000000000000000000000000000000000000000000
01101100011011000110110001101100000000000000000000000000000000000110110001101100011011000110110000000000000000000000000000000000
10101010101010101010101010101010000000000000000000000000000000001010101010101010101010101010101000000000000000000000000000000000
11000110110001101100011011000110000000000000000000000000000000001100011011000110110001101100011000000000000000000000000000000000
00000000000000000000000000000000000000000000000000000000000000000000000000000000000000000000000000000000000000000000000000000000
11000110110001101100011011000110000000000000000000000000000000001100011011000110110001101100011000000000000000000000000000000000
10101010101010101010101010101010000000000000000000000000000000001010101010101010101010101010101000000000000000000000000000000000
01101100011011000110110001101100000000000000000000000000000000000110110001101100011011000110110000000000000000000000000000000000
00000000000000000000000000000000000000000000000000000000000000000000000000000000000000000000000000000000000000000000000000000000
00000000000000000000000001101100000000000000000000000000000000000000000000000000000000000110110000000000000000000000000000000000
00000000000000000000000010101010000000000000000000000000000000000000000000000000000000001010101000000000000000000000000000000000
00000000000000000000000011000110000000000000000000000000000000000000000000000000000000001100011000000000000000000000000000000000
00000000000000000000000000000000000000000000000000000000000000000000000000000000000000000000000000000000000000000000000000000000
00000000000000000000000011000110000000000000000000000000000000000000000000000000000000001100011000000000000000000000000000000000
00000000000000000000000010101010000000000000000000000000000000000000000000000000000000001010101000000000000000000000000000000000
00000000000000000000000001101100000000000000000000000000000000000000000000000000000000000110110000000000000000000000000000000000
00000000000000000000000000000000000000000000000000000000000000000000000000000000000000000000000000000000000000000000000000000000
00000000000000000110110001101100000000000000000000000000000000000000000000000000011011000110110000000000000000000000000000000000
00000000000000001010101010101010000000000000000000000000000000000000000000000000101010101010101000000000000000000000000000000000
00000000000000001100011011000110000000000000000000000000000000000000000000000000110001101100011000000000000000000000000000000000
00000000000000000000000000000000000000000000000000000000000000000000000000000000000000000000000000000000000000000000000000000000
00000000000000001100011011000110000000000000000000000000000000000000000000000000110001101100011000000000000000000000000000000000
00000000000000001010101010101010000000000000000000000000000000000000000000000000101010101010101000000000000000000000000000000000
00000000000000000110110001101100000000000000000000000000000000000000000000000000011011000110110000000000000000000000000000000000
00000000000000000000000000000000000000000000000000000000000000000000000000000000000000000000000000000000000000000000000000000000
00000000011011000000000001101100000000000110110000000000011011000000000001101100000000000110110000000000011011000000000001101100
00000000101010100000000010101010000000001010101000000000101010100000000010101010000000001010101000000000101010100000000010101010
00000000110001100000000011000110000000001100011000000000110001100000000011000110000000001100011000000000110001100000000011000110
00000000000000000000000000000000000000000000000000000000000000000000000000000000000000000000000000000000000000000000000000000000
00000000110001100000000011000110000000001100011000000000110001100000000011000110000000001100011000000000110001100000000011000110
00000000101010100000000010101010000000001010101000000000101010100000000010101010000000001010101000000000101010100000000010101010
00000000011011000000000001101100000000000110110000000000011011000000000001101100000000000110110000000000011011000000000001101100
00000000000000000000000000000000000000000000000000000000000000000000000000000000000000000000000000000000000000000000000000000000
01101100011011000110110001101100011011000110110001101100011011000110110001101100011011000110110001101100011011000110110001101100
10101010101010101010101010101010101010101010101010101010101010101010101010101010101010101010101010101010101010101010101010101010
11000110110001101100011011000110110001101100011011000110110001101100011011000110110001101100011011000110110001101100011011000110
00000000000000000000000000000000000000000000000000000000000000000000000000000000000000000000000000000000000000000000000000000000
11000110110001101100011011000110110001101100011011000110110001101100011011000110110001101100011011000110110001101100011011000110
10101010101010101010101010101010101010101010101010101010101010101010101010101010101010101010101010101010101010101010101010101010
01101100011011000110110001101100011011000110110001101100011011000110110001101100011011000110110001101100011011000110110001101100
00000000000000000000000000000000000000000000000000000000000000000000000000000000000000000000000000000000000000000000000000000000
00000000000000000000000001101100000000000000000000000000011011000000000000000000000000000110110000000000000000000000000001101100
00000000000000000000000010101010000000000000000000000000101010100000000000000000000000001010101000000000000000000000000010101010
00000000000000000000000011000110000000000000000000000000110001100000000000000000000000001100011000000000000000000000000011000110
00000000000000000000000000000000000000000000000000000000000000000000000000000000000000000000000000000000000000000000000000000000
00000000000000000000000011000110000000000000000000000000110001100000000000000000000000001100011000000000000000000000000011000110
00000000000000000000000010101010000000000000000000000000101010100000000000000000000000001010101000000000000000000000000010101010
00000000000000000000000001101100000000000000000000000000011011000000000000000000000000000110110000000000000000000000000001101100
00000000000000000000000000000000000000000000000000000000000000000000000000000000000000000000000000000000000000000000000000000000
00000000000000000110110001101100000000000000000001101100011011000000000000000000011011000110110000000000000000000110110001101100
00000000000000001010101010101010000000000000000010101010101010100000000000000000101010101010101000000000000000001010101010101010
00000000000000001100011011000110000000000000000011000110110001100000000000000000110001101100011000000000000000001100011011000110
00000000000000000000000000000000000000000000000000000000000000000000000000000000000000000000000000000000000000000000000000000000
00000000000000001100011011000110000000000000000011000110110001100000000000000000110001101100011000000000000000001100011011000110
00000000000000001010101010101010000000000000000010101010101010100000000000000000101010101010101000000000000000001010101010101010
00000000000000000110110001101100000000000000000001101100011011000000000000000000011011000110110000000000000000000110110001101100
00000000000000000000000000000000000000000000000000000000000000000000000000000000000000000000000000000000000000000000000000000000
00000000011011000000000001101100000000000000000000000000000000000000000001101100000000000110110000000000000000000000000000000000
00000000101010100000000010101010000000000000000000000000000000000000000010101010000000001010101000000000000000000000000000000000
00000000110001100000000011000110000000000000000000000000000000000000000011000110000000001100011000000000000000000000000000000000
00000000000000000000000000000000000000000000000000000000000000000000000000000000000000000000000000000000000000000000000000000000
00000000110001100000000011000110000000000000000000000000000000000000000011000110000000001100011000000000000000000000000000000000
00000000101010100000000010101010000000000000000000000000000000000000000010101010000000001010101000000000000000000000000000000000
00000000011011000000000001101100000000000000000000000000000000000000000001101100000000000110110000000000000000000000000000000000
00000000000000000000000000000000000000000000000000000000000000000000000000000000000000000000000000000000000000000000000000000000
01101100011011000110110001101100000000000000000000000000000000000110110001101100011011000110110000000000000000000000000000000000
10101010101010101010101010101010000000000000000000000000000000001010101010101010101010101010101000000000000000000000000000000000
11000110110001101100011011000110000000000000000000000000000000001100011011000110110001101100011000000000000000000000000000000000
00000000000000000000000000000000000000000000000000000000000000000000000000000000000000000000000000000000000000000000000000000000
11000110110001101100011011000110000000000000000000000000000000001100011011000110110001101100011000000000000000000000000000000000
10101010101010101010101010101010000000000000000000000000000000001010101010101010101010101010101000000000000000000000000000000000
01101100011011000110110001101100000000000000000000000000000000000110110001101100011011000110110000000000000000000000000000000000
00000000000000000000000000000000000000000000000000000000000000000000000000000000000000000000000000000000000000000000000000000000
00000000000000000000000001101100000000000000000000000000000000000000000000000000000000000110110000000000000000000000000000000000
00000000000000000000000010101010000000000000000000000000000000000000000000000000000000001010101000000000000000000000000000000000
00000000000000000000000011000110000000000000000000000000000000000000000000000000000000001100011000000000000000000000000000000000
00000000000000000000000000000000000000000000000000000000000000000000000000000000000000000000000000000000000000000000000000000000
00000000000000000000000011000110000000000000000000000000000000000000000000000000000000001100011000000000000000000000000000000000
00000000000000000000000010101010000000000000000000000000000000000000000000000000000000001010101000000000000000000000000000000000
00000000000000000000000001101100000000000000000000000000000000000000000000000000000000000110110000000000000000000000000000000000
00000000000000000000000000000000000000000000000000000000000000000000000000000000000000000000000000000000000000000000000000000000
00000000000000000110110001101100000000000000000000000000000000000000000000000000011011000110110000000000000000000000000000000000
00000000000000001010101010101010000000000000000000000000000000000000000000000000101010101010101000000000000000000000000000000000
00000000000000001100011011000110000000000000000000000000000000000000000000000000110001101100011000000000000000000000000000000000
00000000000000000000000000000000000000000000000000000000000000000000000000000000000000000000000000000000000000000000000000000000
00000000000000001100011011000110000000000000000000000000000000000000000000000000110001101100011000000000000000000000000000000000
00000000000000001010101010101010000000000000000000000000000000000000000000000000101010101010101000000000000000000000000000000000
00000000000000000110110001101100000000000000000000000000000000000000000000000000011011000110110000000000000000000000000000000000
00000000000000000000000000000000000000000000000000000000000000000000000000000000000000000000000000000000000000000000000000000000
00000000011011000000000001101100000000000110110000000000011011000000000001101100000000000110110000000000011011000000000001101100
00000000101010100000000010101010000000001010101000000000101010100000000010101010000000001010101000000000101010100000000010101010
00000000110001100000000011000110000000001100011000000000110001100000000011000110000000001100011000000000110001100000000011000110
00000000000000000000000000000000000000000000000000000000000000000000000000000000000000000000000000000000000000000000000000000000
00000000110001100000000011000110000000001100011000000000110001100000000011000110000000001100011000000000110001100000000011000110
00000000101010100000000010101010000000001010101000000000101010100000000010101010000000001010101000000000101010100000000010101010
00000000011011000000000001101100000000000110110000000000011011000000000001101100000000000110110000000000011011000000000001101100
00000000000000000000000000000000000000000000000000000000000000000000000000000000000000000000000000000000000000000000000000000000
01101100011011000110110001101100011011000110110001101100011011000110110001101100011011000110110001101100011011000110110001101100
10101010101010101010101010101010101010101010101010101010101010101010101010101010101010101010101010101010101010101010101010101010
11000110110001101100011011000110110001101100011011000110110001101100011011000110110001101100011011000110110001101100011011000110
00000000000000000000000000000000000000000000000000000000000000000000000000000000000000000000000000000000000000000000000000000000
11000110110001101100011011000110110001101100011011000110110001101100011011000110110001101100011011000110110001101100011011000110
10101010101010101010101010101010101010101010101010101010101010101010101010101010101010101010101010101010101010101010101010101010
01101100011011000110110001101100011011000110110001101100011011000110110001101100011011000110110001101100011011000110110001101100
00000000000000000000000000000000000000000000000000000000000000000000000000000000000000000000000000000000000000000000000000000000
00000000000000000000000001101100000000000000000000000000011011000000000000000000000000000110110000000000000000000000000001101100
00000000000000000000000010101010000000000000000000000000101010100000000000000000000000001010101000000000000000000000000010101010
00000000000000000000000011000110000000000000000000000000110001100000000000000000000000001100011000000000000000000000000011000110
00000000000000000000000000000000000000000000000000000000000000000000000000000000000000000000000000000000000000000000000000000000
00000000000000000000000011000110000000000000000000000000110001100000000000000000000000001100011000000000000000000000000011000110
00000000000000000000000010101010000000000000000000000000101010100000000000000000000000001010101000000000000000000000000010101010
00000000000000000000000001101100000000000000000000000000011011000000000000000000000000000110110000000000000000000000000001101100
00000000000000000000000000000000000000000000000000000000000000000000000000000000000000000000000000000000000000000000000000000000
00000000000000000110110001101100000000000000000001101100011011000000000000000000011011000110110000000000000000000110110001101100
00000000000000001010101010101010000000000000000010101010101010100000000000000000101010101010101000000000000000001010101010101010
00000000000000001100011011000110000000000000000011000110110001100000000000000000110001101100011000000000000000001100011011000110
00000000000000000000000000000000000000000000000000000000000000000000000000000000000000000000000000000000000000000000000000000000
00000000000000001100011011000110000000000000000011000110110001100000000000000000110001101100011000000000000000001100011011000110
00000000000000001010101010101010000000000000000010101010101010100000000000000000101010101010101000000000000000001010101010101010
00000000000000000110110001101100000000000000000001101100011011000000000000000000011011000110110000000000000000000110110001101100
00000000000000000000000000000000000000000000000000000000000000000000000000000000000000000000000000000000000000000000000000000000
